<?xml version="1.0" encoding="utf-8"?>
<svg xmlns="http://www.w3.org/2000/svg" version="1.1" width="1280" height="640" viewBox="-320 -160 640 320"><path fill="#00d45f" d="M10 -50 l40 0 l0 26.84792 l-35.64318 0 l-37.50889 12.50296 l0 33.80119 l8.79526 0 L23.15208 10.64911 l0 -2 l-6.64911 0 L-15.00593 19.15208 l-4.14615 0 l0 -26.91815 l34.158 -11.386 l34.99407 0 L50 30 L-10 50 l-40 0 l0 -80 z" /><path fill="#006930" d="M-50 46 l39.35089 0 L50 25.78363 L50 30 L-10 50 l-40 0 z m26.84792 -56.64911 L14.35682 -23.15208 l35.64318 0 l0 -4 l-35.64318 0 l-37.50889 12.50296 z M15.85385 4.64911 L-15.65504 15.15208 l-3.49704 0 l0 4 l4.14615 0 L16.50296 8.64911 l6.64911 0 l0 -4 z" fill-rule="evenodd" /></svg>
