<?xml version="1.0" encoding="utf-8"?>
<svg xmlns="http://www.w3.org/2000/svg" version="1.1" width="100" height="61.90169" viewBox="-50 -30.95085 100 61.90169"><path fill="#00d4ff" d="M-12.54318 -15.47542 l-8.93474 -15.47542 l-28.52208 0 l0 61.90169 l28.52208 0 L-30.41266 15.47542 z" /><path fill="#007fff" d="M-26.22687 10.22542 l11.96583 20.72542 l28.52208 0 L50 -30.95085 l-28.52208 0 L0 6.25 L-11.96583 -14.47542 z" /><path fill="#005fbf" d="M-11.96583 -14.47542 l1.80422 3.125 L-24.42265 13.35042 l-1.80422 -3.125 z" /><path fill="#002aff" d="M17.29213 -25.70085 L3.03109 -1 L-14.26104 -30.95085 l28.52208 0 z M32.70787 1 L18.44683 25.70085 l3.03109 5.25 l28.52208 0 z" fill-rule="evenodd" /><path fill="#001fbf" d="M15.48791 -28.82585 l1.80422 3.125 L3.03109 -1 L1.22687 -4.125 z M34.51209 4.125 L20.25105 28.82585 l-1.80422 -3.125 L32.70787 1 z" fill-rule="evenodd" /></svg>